# xmcd
#
# Track frame offsets:
#	150
#	13502
#	34146
#	47958
#	60431
#	70800
#	98485
#	117890
#	135210
#	147606
#	160585
#	171149
#
# Disc length: 2479 seconds
#
# Revision: 1
# Processed by: cddbd v1.5.2PL0 Copyright (c) Steve Scherf et al.
# Submitted via: audiograbber 1.83.01
#
DISCID=9709ad0c
DTITLE=ваияопоукос вягстос [2007] - о сумхетгс вя. ваияопоукос [бетта [пяоедяоу
DTITLE=]
DYEAR=2007
DGENRE=
TTITLE0=лпояеи йаи ма лг с' ацапы
TTITLE1=йаи тыяа
TTITLE2=омеияо жтыво лоу
TTITLE3=апоье лоу кеипеис
TTITLE4=лг л' ацапас
TTITLE5=ека ци' апоье
TTITLE6=ти йи ам вахеис
TTITLE7=ьаяопоука
TTITLE8=йакыс гкхес ста омеияа лоу
TTITLE9=аккг ахгма
TTITLE10=лг се моиафеи, ацапг лоу
TTITLE11=селифета
EXTD=
EXTT0=
EXTT1=
EXTT2=
EXTT3=
EXTT4=
EXTT5=
EXTT6=
EXTT7=
EXTT8=
EXTT9=
EXTT10=
EXTT11=
PLAYORDER=
